<?xml version="1.0" standalone="no"?>
<!DOCTYPE svg PUBLIC "-//W3C//DTD SVG 20010904//EN"
 "http://www.w3.org/TR/2001/REC-SVG-20010904/DTD/svg10.dtd">
<svg version="1.0" xmlns="http://www.w3.org/2000/svg"
 width="1924.000000pt" height="427.000000pt" viewBox="0 0 1924.000000 427.000000"
 preserveAspectRatio="xMidYMid meet">

<g transform="translate(0.000000,427.000000) scale(0.100000,-0.100000)"
fill="#000000" stroke="none">
<path d="M4070 3885 l0 -385 -547 0 c-304 0 -587 -5 -636 -10 -103 -12 -225
-56 -278 -100 -59 -48 -107 -129 -124 -210 -23 -109 -22 -1354 1 -1443 39
-152 126 -258 273 -332 107 -54 125 -55 904 -55 l717 0 0 1460 0 1460 -155 0
-155 0 0 -385z m0 -1465 l0 -780 -562 0 c-349 0 -577 4 -599 10 -46 13 -86 63
-110 140 -16 52 -18 113 -20 651 -2 585 -2 595 19 635 23 45 45 62 112 88 81
31 138 34 653 35 l507 1 0 -780z"/>
<path d="M17340 2810 l0 -1460 160 0 160 0 0 926 0 925 543 -3 542 -3 45 -25
c35 -20 52 -39 77 -88 l33 -64 0 -834 0 -834 165 0 165 0 3 638 c3 843 -1
1091 -18 1173 -18 87 -54 156 -105 203 -63 57 -190 114 -280 126 -41 5 -321
10 -622 10 l-548 0 0 385 0 385 -160 0 -160 0 0 -1460z"/>
<path d="M10350 3985 l0 -155 485 0 485 0 0 -1240 0 -1240 160 0 160 0 0 1240
0 1240 480 0 480 0 0 155 0 155 -1125 0 -1125 0 0 -155z"/>
<path d="M4850 3915 l0 -215 155 0 155 0 0 215 0 215 -155 0 -155 0 0 -215z"/>
<path d="M1490 3271 c-272 -137 -715 -361 -985 -499 l-490 -251 0 -97 0 -96
70 -31 c39 -17 153 -68 255 -115 242 -110 796 -353 1030 -452 102 -43 276
-119 386 -168 111 -50 211 -93 223 -97 21 -6 22 -6 19 151 l-3 158 -777 335
c-428 185 -778 338 -778 341 0 3 350 172 778 376 l777 371 3 161 c1 89 -1 162
-5 162 -5 0 -231 -112 -503 -249z"/>
<path d="M7982 3358 l3 -161 777 -376 c428 -207 778 -378 778 -381 0 -3 -350
-154 -778 -336 l-777 -331 -3 -156 c-1 -91 1 -157 7 -157 9 0 613 265 836 368
72 32 184 82 250 110 66 27 176 76 245 107 69 32 208 92 310 135 102 43 220
94 263 114 l78 35 -3 98 -3 98 -616 310 c-339 171 -783 394 -987 498 -205 103
-374 187 -377 187 -3 0 -4 -73 -3 -162z"/>
<path d="M4850 2425 l0 -1075 155 0 155 0 0 1075 0 1075 -155 0 -155 0 0
-1075z"/>
<path d="M5475 3488 c3 -7 212 -490 464 -1073 l459 -1060 174 -3 175 -2 461
1067 c254 588 462 1071 462 1076 0 4 -86 6 -191 5 l-192 -3 -356 -877 c-196
-483 -359 -878 -362 -878 -3 0 -174 396 -379 880 l-373 880 -173 0 c-135 0
-172 -3 -169 -12z"/>
<path d="M13344 3490 c-23 -5 -75 -25 -117 -44 -116 -55 -214 -180 -237 -301
-8 -42 -10 -282 -8 -810 l3 -750 22 -41 c49 -92 107 -135 230 -171 52 -15 137
-17 781 -21 l722 -3 0 145 0 146 -662 0 c-748 0 -714 -3 -753 75 -18 36 -20
64 -23 283 l-4 242 747 0 747 0 -4 448 c-4 400 -6 452 -23 496 -31 84 -65 134
-132 195 -71 66 -131 94 -235 111 -75 12 -993 12 -1054 0z m980 -308 c39 -17
87 -59 108 -93 28 -46 38 -140 38 -356 l0 -203 -585 0 -585 0 0 231 c0 145 4
246 11 270 24 80 102 142 198 159 77 14 781 7 815 -8z"/>
<path d="M15630 3493 c-178 -16 -283 -84 -351 -228 -63 -132 -64 -143 -64
-865 0 -608 1 -659 18 -715 60 -194 176 -299 360 -324 49 -7 307 -11 688 -11
l609 0 0 145 0 145 -617 0 c-707 0 -668 -5 -713 85 l-25 50 -3 613 c-2 434 1
624 9 654 7 27 27 58 53 84 74 74 70 74 723 74 l573 0 0 150 0 150 -612 -2
c-337 0 -629 -3 -648 -5z"/>
<path d="M7932 745 c-101 -31 -152 -91 -152 -180 0 -95 36 -136 191 -218 52
-27 102 -56 113 -66 49 -44 57 -115 16 -158 -11 -12 -43 -26 -72 -32 -72 -15
-145 -1 -241 47 -4 2 -7 -20 -5 -49 l3 -53 45 -14 c57 -18 204 -20 251 -4 88
31 138 94 139 175 0 97 -44 148 -209 236 -125 67 -136 79 -136 143 0 40 5 53
23 69 55 44 175 49 253 11 l39 -19 0 52 0 53 -44 11 c-59 15 -161 13 -214 -4z" fill="red"/>
<path d="M9129 746 c-119 -32 -179 -125 -149 -232 17 -58 75 -111 187 -168 48
-25 101 -56 116 -69 30 -25 44 -77 33 -121 -19 -78 -187 -95 -303 -31 l-43 24
0 -54 0 -53 53 -18 c61 -21 193 -24 253 -6 22 6 59 28 81 47 34 29 44 46 54
90 10 46 10 60 -5 98 -24 63 -82 116 -191 172 -110 56 -145 90 -145 141 0 50
15 73 63 95 61 27 152 21 240 -16 16 -7 18 -3 15 41 -3 46 -5 50 -38 61 -45
15 -162 15 -221 -1z" fill="red"/>
<path d="M8320 744 c0 -3 52 -108 115 -233 l115 -228 0 -136 0 -137 45 0 45 0
0 136 0 136 118 227 c64 124 119 229 121 234 1 4 -19 7 -45 5 l-49 -3 -94
-181 -93 -182 -91 184 -91 184 -48 0 c-26 0 -48 -3 -48 -6z" fill="red"/>
<path d="M9520 710 l0 -40 105 0 105 0 0 -330 0 -330 45 0 45 0 2 328 3 327
103 3 102 3 0 39 0 40 -255 0 -255 0 0 -40z" fill="red"/>
<path d="M10182 383 l3 -368 193 -3 192 -2 0 45 0 45 -150 0 -151 0 3 122 3
123 133 3 132 3 0 39 0 40 -135 0 -136 0 3 118 3 117 143 3 142 3 0 39 0 40
-190 0 -190 0 2 -367z" fill="red"/>
<path d="M10750 380 l0 -370 45 0 45 0 2 291 3 290 130 -290 c108 -245 132
-291 150 -291 17 0 41 48 152 298 l132 297 1 -297 0 -298 45 0 45 0 0 370 0
371 -57 -3 -56 -3 -121 -270 c-67 -148 -126 -280 -131 -292 -9 -20 -29 20
-139 272 l-130 295 -58 0 -58 0 0 -370z" fill="red"/>
<path d="M10 380 l0 -40 3815 0 3815 0 0 40 0 40 -3815 0 -3815 0 0 -40z" fill="red"/>
<path d="M11640 380 l0 -40 3795 0 3795 0 0 40 0 40 -3795 0 -3795 0 0 -40z" fill="red"/>
</g>
</svg>
